# xmcd
#
# Track frame offsets: 
#        150
#        14087
#        29412
#        39265
#        60455
#        73215
#        88330
#        102177
#        117857
#        132820
#        150412
#        169025
#        190235
#        211975
#        228292
#        247922
#        261587
#        280095
#        300242
#        305717
#        313920
#        327955
#
# Disc length: 4550 seconds
#
# Revision: 0
# Processed by: cddbd v1.5.1PL0 Copyright (c) Steve Scherf et al.
# Submitted via: ExactAudioCopy v0.95a5
#
DISCID=3311c416
DTITLE=Tony Bennett - Fifty Years: The Artistry Of Tony Bennett [CD
DTITLE=4)
DYEAR=2004
DGENRE=Big Band/Pop
TTITLE0=Keep Smiling At Trouble (Trouble's A Bubble)
TTITLE1=For Once In My Life
TTITLE2=Who Cares (So Long As You Care For Me)
TTITLE3=Hi-Ho
TTITLE4=Baby Don't You Quit Now
TTITLE5=Something
TTITLE6=Cold, Cold Heart
TTITLE7=I Do Not Know A Day I Did Not Love You
TTITLE8=Old Devil Moon (Live)
TTITLE9=Remind Me
TTITLE10=Maybe This Time
TTITLE11=Some Other Time
TTITLE12=My Foolish Heart
TTITLE13=But Beautiful
TTITLE14=How Do You Keep The Music Playing
TTITLE15=What Are You Afraid Of
TTITLE16=Why Do People Fall In Love?\\People
TTITLE17=I Got Lost In Her Arms
TTITLE18=When I Lost You
TTITLE19=Shakin' The Blues Away
TTITLE20=Antonia
TTITLE21=When Do The Bells Ring For Me
EXTD=
EXTT0=
EXTT1=
EXTT2=
EXTT3=
EXTT4=
EXTT5=
EXTT6=
EXTT7=
EXTT8=
EXTT9=
EXTT10=
EXTT11=
EXTT12=
EXTT13=
EXTT14=
EXTT15=
EXTT16=
EXTT17=
EXTT18=
EXTT19=
EXTT20=
EXTT21=
PLAYORDER=
